<mxfile host="65bd71144e">
    <diagram id="C5RBs43oDa-KdzZeNtuy" name="Page-1">
        <mxGraphModel dx="1146" dy="491" grid="1" gridSize="10" guides="0" tooltips="0" connect="0" arrows="1" fold="1" page="1" pageScale="1" pageWidth="827" pageHeight="1169" background="none" math="0" shadow="0">
            <root>
                <mxCell id="WIyWlLk6GJQsqaUBKTNV-0"/>
                <mxCell id="WIyWlLk6GJQsqaUBKTNV-1" parent="WIyWlLk6GJQsqaUBKTNV-0"/>
                <mxCell id="8ABx8KzGzujFoB0wgl1V-0" value="Reader" style="swimlane;fontStyle=1;align=center;verticalAlign=top;childLayout=stackLayout;horizontal=1;startSize=26;horizontalStack=0;resizeParent=1;resizeParentMax=0;resizeLast=0;collapsible=1;marginBottom=0;" parent="WIyWlLk6GJQsqaUBKTNV-1" vertex="1">
                    <mxGeometry x="55" y="721" width="330" height="220" as="geometry">
                        <mxRectangle x="190" y="420" width="70" height="26" as="alternateBounds"/>
                    </mxGeometry>
                </mxCell>
                <mxCell id="8ABx8KzGzujFoB0wgl1V-1" value="- numOfProperties: int&#10;- inputPath: string&#10;- distMetric: Classified::distMetric&#10;" style="text;strokeColor=none;fillColor=none;align=left;verticalAlign=top;spacingLeft=4;spacingRight=4;overflow=hidden;rotatable=0;points=[[0,0.5],[1,0.5]];portConstraint=eastwest;" parent="8ABx8KzGzujFoB0wgl1V-0" vertex="1">
                    <mxGeometry y="26" width="330" height="54" as="geometry"/>
                </mxCell>
                <mxCell id="8ABx8KzGzujFoB0wgl1V-2" value="" style="line;strokeWidth=1;fillColor=none;align=left;verticalAlign=middle;spacingTop=-1;spacingLeft=3;spacingRight=3;rotatable=0;labelPosition=right;points=[];portConstraint=eastwest;" parent="8ABx8KzGzujFoB0wgl1V-0" vertex="1">
                    <mxGeometry y="80" width="330" height="8" as="geometry"/>
                </mxCell>
                <mxCell id="8ABx8KzGzujFoB0wgl1V-3" value="- initNumOfProperties(firstLine: string): void&#10;- parseLine(line: string&amp;): shared_ptr&lt;Classified&gt;&#10;+ setInputPath(inputPath: string): void&#10;+ read(vector&lt;shared_ptr&lt;Classifier&gt;&gt;&amp;): void&#10;+ read(vector&lt;shared_ptr&lt;Classifier&gt;&gt;&amp;, input: string): void&#10;+ toString(): string&#10;+ fileToString(const string): string&#10;+ getLabelsString(vector&lt;shared_ptr&lt;Classifier&gt;&gt;): string" style="text;strokeColor=none;fillColor=none;align=left;verticalAlign=top;spacingLeft=4;spacingRight=4;overflow=hidden;rotatable=0;points=[[0,0.5],[1,0.5]];portConstraint=eastwest;" parent="8ABx8KzGzujFoB0wgl1V-0" vertex="1">
                    <mxGeometry y="88" width="330" height="132" as="geometry"/>
                </mxCell>
                <mxCell id="8ABx8KzGzujFoB0wgl1V-4" style="edgeStyle=orthogonalEdgeStyle;rounded=0;orthogonalLoop=1;jettySize=auto;html=1;exitX=0.5;exitY=0;exitDx=0;exitDy=0;entryX=0.5;entryY=1;entryDx=0;entryDy=0;endArrow=blockThin;endFill=0;" parent="WIyWlLk6GJQsqaUBKTNV-1" source="11" target="8ABx8KzGzujFoB0wgl1V-17" edge="1">
                    <mxGeometry relative="1" as="geometry">
                        <mxPoint x="658" y="250" as="targetPoint"/>
                    </mxGeometry>
                </mxCell>
                <mxCell id="8ABx8KzGzujFoB0wgl1V-13" value="Writer" style="swimlane;fontStyle=1;align=center;verticalAlign=top;childLayout=stackLayout;horizontal=1;startSize=26;horizontalStack=0;resizeParent=1;resizeParentMax=0;resizeLast=0;collapsible=1;marginBottom=0;" parent="WIyWlLk6GJQsqaUBKTNV-1" vertex="1">
                    <mxGeometry x="453" y="721" width="250" height="120" as="geometry"/>
                </mxCell>
                <mxCell id="8ABx8KzGzujFoB0wgl1V-14" value="+ outputPath: string" style="text;strokeColor=none;fillColor=none;align=left;verticalAlign=top;spacingLeft=4;spacingRight=4;overflow=hidden;rotatable=0;points=[[0,0.5],[1,0.5]];portConstraint=eastwest;" parent="8ABx8KzGzujFoB0wgl1V-13" vertex="1">
                    <mxGeometry y="26" width="250" height="24" as="geometry"/>
                </mxCell>
                <mxCell id="8ABx8KzGzujFoB0wgl1V-15" value="" style="line;strokeWidth=1;fillColor=none;align=left;verticalAlign=middle;spacingTop=-1;spacingLeft=3;spacingRight=3;rotatable=0;labelPosition=right;points=[];portConstraint=eastwest;" parent="8ABx8KzGzujFoB0wgl1V-13" vertex="1">
                    <mxGeometry y="50" width="250" height="8" as="geometry"/>
                </mxCell>
                <mxCell id="8ABx8KzGzujFoB0wgl1V-16" value="+ setOutputPath(path: string)&#10;+ write(vector&lt;shared_ptr&lt;Classified&gt;&gt;)&#10;+ write(const string): void" style="text;strokeColor=none;fillColor=none;align=left;verticalAlign=top;spacingLeft=4;spacingRight=4;overflow=hidden;rotatable=0;points=[[0,0.5],[1,0.5]];portConstraint=eastwest;" parent="8ABx8KzGzujFoB0wgl1V-13" vertex="1">
                    <mxGeometry y="58" width="250" height="62" as="geometry"/>
                </mxCell>
                <mxCell id="8ABx8KzGzujFoB0wgl1V-17" value="&lt;p style=&quot;margin: 0px ; margin-top: 4px ; text-align: center&quot;&gt;&lt;i&gt;&amp;lt;&amp;lt;abstract&amp;gt;&amp;gt;&lt;/i&gt;&lt;br&gt;&lt;b&gt;Classifier&lt;/b&gt;&lt;/p&gt;&lt;hr size=&quot;1&quot;&gt;&lt;p style=&quot;margin: 0px ; margin-left: 4px&quot;&gt;+ predict(const Classified&amp;amp;): string&lt;/p&gt;&lt;p style=&quot;margin: 0px ; margin-left: 4px&quot;&gt;+ predict(vector&amp;lt;shared_ptr&amp;lt;Classifier&amp;gt;&amp;gt;): void&lt;br&gt;&lt;br&gt;&lt;/p&gt;" style="verticalAlign=top;align=left;overflow=fill;fontSize=12;fontFamily=Helvetica;html=1;" parent="WIyWlLk6GJQsqaUBKTNV-1" vertex="1">
                    <mxGeometry x="457.5" y="190" width="264.5" height="78" as="geometry"/>
                </mxCell>
                <mxCell id="0" value="UML Diagram - Ex3 AP1" style="text;html=1;resizable=0;autosize=1;align=center;verticalAlign=middle;points=[];fillColor=none;strokeColor=none;rounded=0;fontSize=14;fontStyle=1" parent="WIyWlLk6GJQsqaUBKTNV-1" vertex="1">
                    <mxGeometry x="333" y="60" width="170" height="20" as="geometry"/>
                </mxCell>
                <mxCell id="1" value="Made by Idan Turkenits &amp;amp; Tommy Zaft" style="text;html=1;align=center;verticalAlign=middle;resizable=0;points=[];autosize=1;strokeColor=none;imageWidth=50;fontSize=14;fontStyle=1" parent="WIyWlLk6GJQsqaUBKTNV-1" vertex="1">
                    <mxGeometry x="283" y="95" width="270" height="20" as="geometry"/>
                </mxCell>
                <mxCell id="2" value="Algorithm" style="swimlane;fontStyle=1;align=center;verticalAlign=top;childLayout=stackLayout;horizontal=1;startSize=26;horizontalStack=0;resizeParent=1;resizeParentMax=0;resizeLast=0;collapsible=1;marginBottom=0;" parent="WIyWlLk6GJQsqaUBKTNV-1" vertex="1">
                    <mxGeometry x="203.5" y="440" width="421" height="70" as="geometry">
                        <mxRectangle x="190" y="420" width="70" height="26" as="alternateBounds"/>
                    </mxGeometry>
                </mxCell>
                <mxCell id="5" value="+ sortByDiffrence(vector&lt;shared_ptr&lt;T&gt;&gt;)&#10;+ getKSmallest(vector&lt;shared_ptr&lt;T&gt;&gt; , int k):vector&lt;shared_ptr&lt;T&gt;&gt;" style="text;strokeColor=none;fillColor=none;align=left;verticalAlign=top;spacingLeft=4;spacingRight=4;overflow=hidden;rotatable=0;points=[[0,0.5],[1,0.5]];portConstraint=eastwest;" parent="2" vertex="1">
                    <mxGeometry y="26" width="421" height="44" as="geometry"/>
                </mxCell>
                <mxCell id="11" value="KNN Classifier" style="swimlane;fontStyle=1;align=center;verticalAlign=top;childLayout=stackLayout;horizontal=1;startSize=26;horizontalStack=0;resizeParent=1;resizeParentMax=0;resizeLast=0;collapsible=1;marginBottom=0;" parent="WIyWlLk6GJQsqaUBKTNV-1" vertex="1">
                    <mxGeometry x="474.75" y="300" width="230" height="110" as="geometry"/>
                </mxCell>
                <mxCell id="12" value="+ data:Â vector&lt;shared_ptr&lt;Classifier&gt;&gt;&#10;+ k: int" style="text;strokeColor=none;fillColor=none;align=left;verticalAlign=top;spacingLeft=4;spacingRight=4;overflow=hidden;rotatable=0;points=[[0,0.5],[1,0.5]];portConstraint=eastwest;" parent="11" vertex="1">
                    <mxGeometry y="26" width="230" height="34" as="geometry"/>
                </mxCell>
                <mxCell id="13" value="" style="line;strokeWidth=1;fillColor=none;align=left;verticalAlign=middle;spacingTop=-1;spacingLeft=3;spacingRight=3;rotatable=0;labelPosition=right;points=[];portConstraint=eastwest;" parent="11" vertex="1">
                    <mxGeometry y="60" width="230" height="8" as="geometry"/>
                </mxCell>
                <mxCell id="14" value="+ predict(const Classified&amp;): string&#10;+ setK(k: const int)" style="text;strokeColor=none;fillColor=none;align=left;verticalAlign=top;spacingLeft=4;spacingRight=4;overflow=hidden;rotatable=0;points=[[0,0.5],[1,0.5]];portConstraint=eastwest;" parent="11" vertex="1">
                    <mxGeometry y="68" width="230" height="42" as="geometry"/>
                </mxCell>
                <mxCell id="15" value="Classified" style="swimlane;fontStyle=1;align=center;verticalAlign=top;childLayout=stackLayout;horizontal=1;startSize=30;horizontalStack=0;resizeParent=1;resizeParentMax=0;resizeLast=0;collapsible=1;marginBottom=0;" parent="WIyWlLk6GJQsqaUBKTNV-1" vertex="1">
                    <mxGeometry x="106" y="190" width="260" height="220" as="geometry"/>
                </mxCell>
                <mxCell id="16" value="+ double (*distMetric)(const Classified &amp;, const Classified &amp;)&#10;- properties: vector&lt;double&gt;&#10;- label: string&#10;- dist: distMetric" style="text;strokeColor=none;fillColor=none;align=left;verticalAlign=top;spacingLeft=4;spacingRight=4;overflow=hidden;rotatable=0;points=[[0,0.5],[1,0.5]];portConstraint=eastwest;" parent="15" vertex="1">
                    <mxGeometry y="30" width="260" height="70" as="geometry"/>
                </mxCell>
                <mxCell id="17" value="" style="line;strokeWidth=1;fillColor=none;align=left;verticalAlign=middle;spacingTop=-1;spacingLeft=3;spacingRight=3;rotatable=0;labelPosition=right;points=[];portConstraint=eastwest;" parent="15" vertex="1">
                    <mxGeometry y="100" width="260" height="8" as="geometry"/>
                </mxCell>
                <mxCell id="18" value="+Â getProperties(): vector&lt;double&gt;&#10;+ getLabel(): const string&amp;&#10;+ getDistMetric(): distMetric*&#10;+ setDistMetric(distMetric*): void&#10;+ setLabel(string)&#10;+ deleteLabel()&#10;+ getDistance(f: const Classified&amp;): double" style="text;strokeColor=none;fillColor=none;align=left;verticalAlign=top;spacingLeft=4;spacingRight=4;overflow=hidden;rotatable=0;points=[[0,0.5],[1,0.5]];portConstraint=eastwest;" parent="15" vertex="1">
                    <mxGeometry y="108" width="260" height="112" as="geometry"/>
                </mxCell>
                <mxCell id="41" value="&lt;&lt;abstract&gt;&gt;&#10;Socket" style="swimlane;fontStyle=1;align=center;verticalAlign=top;childLayout=stackLayout;horizontal=1;startSize=40;horizontalStack=0;resizeParent=1;resizeParentMax=0;resizeLast=0;collapsible=1;marginBottom=0;" parent="WIyWlLk6GJQsqaUBKTNV-1" vertex="1">
                    <mxGeometry x="224" y="1220" width="380" height="314" as="geometry">
                        <mxRectangle x="190" y="420" width="70" height="26" as="alternateBounds"/>
                    </mxGeometry>
                </mxCell>
                <mxCell id="42" value="- socketNum: int&#10;- ipV: int" style="text;strokeColor=none;fillColor=none;align=left;verticalAlign=top;spacingLeft=4;spacingRight=4;overflow=hidden;rotatable=0;points=[[0,0.5],[1,0.5]];portConstraint=eastwest;" parent="41" vertex="1">
                    <mxGeometry y="40" width="380" height="44" as="geometry"/>
                </mxCell>
                <mxCell id="43" value="" style="line;strokeWidth=1;fillColor=none;align=left;verticalAlign=middle;spacingTop=-1;spacingLeft=3;spacingRight=3;rotatable=0;labelPosition=right;points=[];portConstraint=eastwest;" parent="41" vertex="1">
                    <mxGeometry y="84" width="380" height="8" as="geometry"/>
                </mxCell>
                <mxCell id="44" value="+ BUFFER_SIZE: int&#10;+ ENTER: char*&#10;&#10;# setSocketNum(socket: const int): voidÂ &#10;# setIpV(ipV: const int): void&#10;# getIpV(): int&#10;+ bindSocket(sourceIp: const char *, sourcePort: const int): void&#10;+ closeSocket(): void&#10;+ init(ipV: const int): virtual void&#10;+ connectSocket(destIp: const char *, destPort: const int): virtual void&#10;+ listenSocket(): virtual void&#10;+ acceptSocket(): virtual void&#10;+ sendSocket(messege: string): virtual void&#10;+ recvSocket(buffer: char*, len: int): virtual void&#10;+Â getSocketNum(): int" style="text;strokeColor=none;fillColor=none;align=left;verticalAlign=top;spacingLeft=4;spacingRight=4;overflow=hidden;rotatable=0;points=[[0,0.5],[1,0.5]];portConstraint=eastwest;" parent="41" vertex="1">
                    <mxGeometry y="92" width="380" height="222" as="geometry"/>
                </mxCell>
                <mxCell id="57" style="edgeStyle=orthogonalEdgeStyle;rounded=0;orthogonalLoop=1;jettySize=auto;html=1;exitX=0.5;exitY=0;exitDx=0;exitDy=0;endArrow=blockThin;endFill=0;entryX=0.505;entryY=1.003;entryDx=0;entryDy=0;entryPerimeter=0;" parent="WIyWlLk6GJQsqaUBKTNV-1" source="74" target="44" edge="1">
                    <mxGeometry relative="1" as="geometry">
                        <mxPoint x="160" y="1588" as="targetPoint"/>
                        <Array as="points">
                            <mxPoint x="172" y="1618"/>
                            <mxPoint x="172" y="1560"/>
                            <mxPoint x="416" y="1560"/>
                        </Array>
                    </mxGeometry>
                </mxCell>
                <mxCell id="70" value="DataManager" style="swimlane;fontStyle=1;align=center;verticalAlign=top;childLayout=stackLayout;horizontal=1;startSize=26;horizontalStack=0;resizeParent=1;resizeParentMax=0;resizeLast=0;collapsible=1;marginBottom=0;" parent="WIyWlLk6GJQsqaUBKTNV-1" vertex="1">
                    <mxGeometry x="82.75" y="1800" width="274.5" height="230" as="geometry">
                        <mxRectangle x="190" y="420" width="70" height="26" as="alternateBounds"/>
                    </mxGeometry>
                </mxCell>
                <mxCell id="71" value="- MIN_K_VALUE: int&#10;- MAX_K_VALUE: int&#10;- DEFAULT_K: int&#10;- DEFAULT_DISTANCE_METRIC: string&#10;&#10;- k: int&#10;- distanceFunc: pointer to function&#10;- trainData: vector&lt;shared_ptr&lt;Classified&gt;&gt;&#10;- testData: vector&lt;shared_ptr&lt;Classified&gt;&gt;&#10;- classifiedData:Â vector&lt;shared_ptr&lt;Classified&gt;&gt;&#10;- didExit: bool" style="text;strokeColor=none;fillColor=none;align=left;verticalAlign=top;spacingLeft=4;spacingRight=4;overflow=hidden;rotatable=0;points=[[0,0.5],[1,0.5]];portConstraint=eastwest;" parent="70" vertex="1">
                    <mxGeometry y="26" width="274.5" height="164" as="geometry"/>
                </mxCell>
                <mxCell id="72" value="" style="line;strokeWidth=1;fillColor=none;align=left;verticalAlign=middle;spacingTop=-1;spacingLeft=3;spacingRight=3;rotatable=0;labelPosition=right;points=[];portConstraint=eastwest;" parent="70" vertex="1">
                    <mxGeometry y="190" width="274.5" height="10" as="geometry"/>
                </mxCell>
                <mxCell id="73" value="+ Getter and Setter for every member." style="text;strokeColor=none;fillColor=none;align=left;verticalAlign=top;spacingLeft=4;spacingRight=4;overflow=hidden;rotatable=0;points=[[0,0.5],[1,0.5]];portConstraint=eastwest;" parent="70" vertex="1">
                    <mxGeometry y="200" width="274.5" height="30" as="geometry"/>
                </mxCell>
                <mxCell id="74" value="Tcp" style="swimlane;fontStyle=1;align=center;verticalAlign=top;childLayout=stackLayout;horizontal=1;startSize=26;horizontalStack=0;resizeParent=1;resizeParentMax=0;resizeLast=0;collapsible=1;marginBottom=0;" parent="WIyWlLk6GJQsqaUBKTNV-1" vertex="1">
                    <mxGeometry x="55" y="1618" width="230" height="100" as="geometry">
                        <mxRectangle x="190" y="420" width="70" height="26" as="alternateBounds"/>
                    </mxGeometry>
                </mxCell>
                <mxCell id="75" value="- connectionSocket: int&#10;- queueSize: int&#10;" style="text;strokeColor=none;fillColor=none;align=left;verticalAlign=top;spacingLeft=4;spacingRight=4;overflow=hidden;rotatable=0;points=[[0,0.5],[1,0.5]];portConstraint=eastwest;" parent="74" vertex="1">
                    <mxGeometry y="26" width="230" height="34" as="geometry"/>
                </mxCell>
                <mxCell id="76" value="" style="line;strokeWidth=1;fillColor=none;align=left;verticalAlign=middle;spacingTop=-1;spacingLeft=3;spacingRight=3;rotatable=0;labelPosition=right;points=[];portConstraint=eastwest;" parent="74" vertex="1">
                    <mxGeometry y="60" width="230" height="8" as="geometry"/>
                </mxCell>
                <mxCell id="77" value="+ setQueueSize(int)" style="text;strokeColor=none;fillColor=none;align=left;verticalAlign=top;spacingLeft=4;spacingRight=4;overflow=hidden;rotatable=0;points=[[0,0.5],[1,0.5]];portConstraint=eastwest;" parent="74" vertex="1">
                    <mxGeometry y="68" width="230" height="32" as="geometry"/>
                </mxCell>
                <mxCell id="79" value="TcpServer" style="swimlane;fontStyle=1;align=center;verticalAlign=top;childLayout=stackLayout;horizontal=1;startSize=26;horizontalStack=0;resizeParent=1;resizeParentMax=0;resizeLast=0;collapsible=1;marginBottom=0;" parent="WIyWlLk6GJQsqaUBKTNV-1" vertex="1">
                    <mxGeometry x="414.75" y="1590" width="350" height="190" as="geometry">
                        <mxRectangle x="190" y="420" width="70" height="26" as="alternateBounds"/>
                    </mxGeometry>
                </mxCell>
                <mxCell id="80" value="- tcp: Tcp" style="text;strokeColor=none;fillColor=none;align=left;verticalAlign=top;spacingLeft=4;spacingRight=4;overflow=hidden;rotatable=0;points=[[0,0.5],[1,0.5]];portConstraint=eastwest;" parent="79" vertex="1">
                    <mxGeometry y="26" width="350" height="24" as="geometry"/>
                </mxCell>
                <mxCell id="81" value="" style="line;strokeWidth=1;fillColor=none;align=left;verticalAlign=middle;spacingTop=-1;spacingLeft=3;spacingRight=3;rotatable=0;labelPosition=right;points=[];portConstraint=eastwest;" parent="79" vertex="1">
                    <mxGeometry y="50" width="350" height="8" as="geometry"/>
                </mxCell>
                <mxCell id="82" value="+ SERVER_PORT: int&#10;+ TIMEOUT_IN_SECONDS: int&#10;+ TIMEOUT_ERROR: int&#10;&#10;+ init(ipV: const int): void&#10;+ bindSocket(sourceIp: const char *, sourcePort: const int): void&#10;+ acceptSocket(): virtual void&#10;+ closeSocket(): void&#10;" style="text;strokeColor=none;fillColor=none;align=left;verticalAlign=top;spacingLeft=4;spacingRight=4;overflow=hidden;rotatable=0;points=[[0,0.5],[1,0.5]];portConstraint=eastwest;" parent="79" vertex="1">
                    <mxGeometry y="58" width="350" height="132" as="geometry"/>
                </mxCell>
                <mxCell id="85" style="edgeStyle=orthogonalEdgeStyle;rounded=0;orthogonalLoop=1;jettySize=auto;html=1;endArrow=diamond;endFill=0;entryX=1;entryY=0.5;entryDx=0;entryDy=0;exitX=0;exitY=0.394;exitDx=0;exitDy=0;exitPerimeter=0;" parent="WIyWlLk6GJQsqaUBKTNV-1" source="82" target="75" edge="1">
                    <mxGeometry relative="1" as="geometry">
                        <mxPoint x="310" y="1678" as="targetPoint"/>
                        <mxPoint x="320" y="1688" as="sourcePoint"/>
                    </mxGeometry>
                </mxCell>
                <mxCell id="160" value="CLI" style="swimlane;fontStyle=1;align=center;verticalAlign=top;childLayout=stackLayout;horizontal=1;startSize=26;horizontalStack=0;resizeParent=1;resizeParentMax=0;resizeLast=0;collapsible=1;marginBottom=0;" parent="WIyWlLk6GJQsqaUBKTNV-1" vertex="1">
                    <mxGeometry x="446.75" y="1860" width="274.5" height="200" as="geometry">
                        <mxRectangle x="190" y="420" width="70" height="26" as="alternateBounds"/>
                    </mxGeometry>
                </mxCell>
                <mxCell id="161" value="+ EXIT_CODE: char*&#10;&#10;- dio: DefaultIO*&#10;- data: DataManager*&#10;- commands: vector&lt;shared_ptr&lt;Command&gt;&gt;" style="text;strokeColor=none;fillColor=none;align=left;verticalAlign=top;spacingLeft=4;spacingRight=4;overflow=hidden;rotatable=0;points=[[0,0.5],[1,0.5]];portConstraint=eastwest;" parent="160" vertex="1">
                    <mxGeometry y="26" width="274.5" height="84" as="geometry"/>
                </mxCell>
                <mxCell id="162" value="" style="line;strokeWidth=1;fillColor=none;align=left;verticalAlign=middle;spacingTop=-1;spacingLeft=3;spacingRight=3;rotatable=0;labelPosition=right;points=[];portConstraint=eastwest;" parent="160" vertex="1">
                    <mxGeometry y="110" width="274.5" height="10" as="geometry"/>
                </mxCell>
                <mxCell id="163" value="+ printMenu(): void&#10;+ start(): void&#10;+ communicateWithUser(): void&#10;+ getMenu: string&#10;+ validateUserInput(const string&amp;): bool" style="text;strokeColor=none;fillColor=none;align=left;verticalAlign=top;spacingLeft=4;spacingRight=4;overflow=hidden;rotatable=0;points=[[0,0.5],[1,0.5]];portConstraint=eastwest;" parent="160" vertex="1">
                    <mxGeometry y="120" width="274.5" height="80" as="geometry"/>
                </mxCell>
                <mxCell id="164" style="edgeStyle=orthogonalEdgeStyle;rounded=0;orthogonalLoop=1;jettySize=auto;html=1;exitX=0;exitY=0.5;exitDx=0;exitDy=0;entryX=1;entryY=0.175;entryDx=0;entryDy=0;endArrow=diamond;endFill=0;entryPerimeter=0;" parent="WIyWlLk6GJQsqaUBKTNV-1" source="161" target="71" edge="1">
                    <mxGeometry relative="1" as="geometry">
                        <Array as="points">
                            <mxPoint x="410" y="1928"/>
                            <mxPoint x="410" y="1855"/>
                        </Array>
                    </mxGeometry>
                </mxCell>
                <mxCell id="165" style="edgeStyle=orthogonalEdgeStyle;rounded=0;orthogonalLoop=1;jettySize=auto;html=1;exitX=0;exitY=0.5;exitDx=0;exitDy=0;endArrow=diamond;endFill=0;entryX=1;entryY=0.5;entryDx=0;entryDy=0;" parent="WIyWlLk6GJQsqaUBKTNV-1" source="161" target="167" edge="1">
                    <mxGeometry relative="1" as="geometry">
                        <mxPoint x="360" y="2207" as="targetPoint"/>
                        <Array as="points">
                            <mxPoint x="410" y="1928"/>
                            <mxPoint x="410" y="2137"/>
                        </Array>
                    </mxGeometry>
                </mxCell>
                <mxCell id="166" value="&lt;&lt;abstract&gt;&gt;&#10;Command" style="swimlane;fontStyle=1;align=center;verticalAlign=top;childLayout=stackLayout;horizontal=1;startSize=40;horizontalStack=0;resizeParent=1;resizeParentMax=0;resizeLast=0;collapsible=1;marginBottom=0;" parent="WIyWlLk6GJQsqaUBKTNV-1" vertex="1">
                    <mxGeometry x="109" y="2070" width="220" height="174" as="geometry">
                        <mxRectangle x="190" y="420" width="70" height="26" as="alternateBounds"/>
                    </mxGeometry>
                </mxCell>
                <mxCell id="167" value="- dio: DefaultIO*&#10;- dataManager: DataManager*&#10;- description: string" style="text;strokeColor=none;fillColor=none;align=left;verticalAlign=top;spacingLeft=4;spacingRight=4;overflow=hidden;rotatable=0;points=[[0,0.5],[1,0.5]];portConstraint=eastwest;" parent="166" vertex="1">
                    <mxGeometry y="40" width="220" height="54" as="geometry"/>
                </mxCell>
                <mxCell id="168" value="" style="line;strokeWidth=1;fillColor=none;align=left;verticalAlign=middle;spacingTop=-1;spacingLeft=3;spacingRight=3;rotatable=0;labelPosition=right;points=[];portConstraint=eastwest;" parent="166" vertex="1">
                    <mxGeometry y="94" width="220" height="8" as="geometry"/>
                </mxCell>
                <mxCell id="169" value="+ getDescription(): const string&amp;&#10;+ getDataManager(): DataManager*&#10;+ getDIO: const DefaultIO*&#10;+ execute(): void" style="text;strokeColor=none;fillColor=none;align=left;verticalAlign=top;spacingLeft=4;spacingRight=4;overflow=hidden;rotatable=0;points=[[0,0.5],[1,0.5]];portConstraint=eastwest;" parent="166" vertex="1">
                    <mxGeometry y="102" width="220" height="72" as="geometry"/>
                </mxCell>
                <mxCell id="170" value="StringFunctions" style="swimlane;fontStyle=1;align=center;verticalAlign=top;childLayout=stackLayout;horizontal=1;startSize=26;horizontalStack=0;resizeParent=1;resizeParentMax=0;resizeLast=0;collapsible=1;marginBottom=0;" parent="WIyWlLk6GJQsqaUBKTNV-1" vertex="1">
                    <mxGeometry x="225" y="1000" width="377" height="80" as="geometry"/>
                </mxCell>
                <mxCell id="173" value="+ split(strToSplit: const string&amp;, delim: const string&amp;): vector&lt;string&gt;&#10;+ replaceChar(str: const string&amp;, old: char, new: char): string&#10;+ removeChar(str: const string&amp;, old: char): string" style="text;strokeColor=none;fillColor=none;align=left;verticalAlign=top;spacingLeft=4;spacingRight=4;overflow=hidden;rotatable=0;points=[[0,0.5],[1,0.5]];portConstraint=eastwest;" parent="170" vertex="1">
                    <mxGeometry y="26" width="377" height="54" as="geometry"/>
                </mxCell>
                <mxCell id="174" value="InputValidator" style="swimlane;fontStyle=1;align=center;verticalAlign=top;childLayout=stackLayout;horizontal=1;startSize=26;horizontalStack=0;resizeParent=1;resizeParentMax=0;resizeLast=0;collapsible=1;marginBottom=0;" parent="WIyWlLk6GJQsqaUBKTNV-1" vertex="1">
                    <mxGeometry x="453" y="871" width="250" height="70" as="geometry"/>
                </mxCell>
                <mxCell id="175" value="+ isDouble(const string&amp;): bool&#10;+ isInt(const string&amp;): bool" style="text;strokeColor=none;fillColor=none;align=left;verticalAlign=top;spacingLeft=4;spacingRight=4;overflow=hidden;rotatable=0;points=[[0,0.5],[1,0.5]];portConstraint=eastwest;" parent="174" vertex="1">
                    <mxGeometry y="26" width="250" height="44" as="geometry"/>
                </mxCell>
                <mxCell id="178" value="" style="shape=folder;fontStyle=1;spacingTop=10;tabWidth=92;tabHeight=20;tabPosition=left;html=1;rounded=0;shadow=0;comic=0;labelBackgroundColor=none;strokeWidth=1;fillColor=none;fontFamily=Verdana;fontSize=10;align=center;" parent="WIyWlLk6GJQsqaUBKTNV-1" vertex="1">
                    <mxGeometry x="32.25" y="3590" width="321.5" height="210" as="geometry"/>
                </mxCell>
                <mxCell id="232" value="&lt;font style=&quot;font-size: 12px&quot;&gt;&lt;b&gt;utils&lt;/b&gt;&lt;/font&gt;" style="text;html=1;align=left;verticalAlign=top;spacingTop=-4;fontSize=10;fontFamily=Verdana" parent="WIyWlLk6GJQsqaUBKTNV-1" vertex="1">
                    <mxGeometry x="33.25" y="3590" width="130" height="20" as="geometry"/>
                </mxCell>
                <mxCell id="234" value="InputValidator" style="whiteSpace=wrap;html=1;" parent="WIyWlLk6GJQsqaUBKTNV-1" vertex="1">
                    <mxGeometry x="53.75" y="3630" width="120" height="60" as="geometry"/>
                </mxCell>
                <mxCell id="235" value="Reader" style="whiteSpace=wrap;html=1;" parent="WIyWlLk6GJQsqaUBKTNV-1" vertex="1">
                    <mxGeometry x="209.25" y="3630" width="120" height="60" as="geometry"/>
                </mxCell>
                <mxCell id="236" value="Writer" style="whiteSpace=wrap;html=1;" parent="WIyWlLk6GJQsqaUBKTNV-1" vertex="1">
                    <mxGeometry x="209.25" y="3720" width="120" height="60" as="geometry"/>
                </mxCell>
                <mxCell id="237" value="StringFunctions" style="whiteSpace=wrap;html=1;" parent="WIyWlLk6GJQsqaUBKTNV-1" vertex="1">
                    <mxGeometry x="53.75" y="3720" width="120" height="60" as="geometry"/>
                </mxCell>
                <mxCell id="238" value="" style="shape=folder;fontStyle=1;spacingTop=10;tabWidth=92;tabHeight=20;tabPosition=left;html=1;rounded=0;shadow=0;comic=0;labelBackgroundColor=none;strokeWidth=1;fillColor=none;fontFamily=Verdana;fontSize=10;align=center;" parent="WIyWlLk6GJQsqaUBKTNV-1" vertex="1">
                    <mxGeometry x="417.75" y="3590" width="321.5" height="210" as="geometry"/>
                </mxCell>
                <mxCell id="239" value="&lt;font style=&quot;font-size: 12px&quot;&gt;&lt;b&gt;IO&lt;/b&gt;&lt;/font&gt;" style="text;html=1;align=left;verticalAlign=top;spacingTop=-4;fontSize=10;fontFamily=Verdana" parent="WIyWlLk6GJQsqaUBKTNV-1" vertex="1">
                    <mxGeometry x="418.75" y="3590" width="130" height="20" as="geometry"/>
                </mxCell>
                <mxCell id="240" value="DefaultIO" style="whiteSpace=wrap;html=1;" parent="WIyWlLk6GJQsqaUBKTNV-1" vertex="1">
                    <mxGeometry x="439.25" y="3630" width="120" height="60" as="geometry"/>
                </mxCell>
                <mxCell id="241" value="SocketIO" style="whiteSpace=wrap;html=1;" parent="WIyWlLk6GJQsqaUBKTNV-1" vertex="1">
                    <mxGeometry x="594.75" y="3630" width="120" height="60" as="geometry"/>
                </mxCell>
                <mxCell id="243" value="StandardIO" style="whiteSpace=wrap;html=1;" parent="WIyWlLk6GJQsqaUBKTNV-1" vertex="1">
                    <mxGeometry x="518.5" y="3720" width="120" height="60" as="geometry"/>
                </mxCell>
                <mxCell id="244" value="&lt;&lt;interface&gt;&gt;&#10;DefaultIO" style="swimlane;fontStyle=3;align=center;verticalAlign=top;childLayout=stackLayout;horizontal=1;startSize=40;horizontalStack=0;resizeParent=1;resizeParentMax=0;resizeLast=0;collapsible=1;marginBottom=0;" parent="WIyWlLk6GJQsqaUBKTNV-1" vertex="1">
                    <mxGeometry x="286" y="2393" width="250" height="94" as="geometry"/>
                </mxCell>
                <mxCell id="245" value="+ read(): string&#10;+ write(string): void&#10;+ getIOKind(): string" style="text;strokeColor=none;fillColor=none;align=left;verticalAlign=top;spacingLeft=4;spacingRight=4;overflow=hidden;rotatable=0;points=[[0,0.5],[1,0.5]];portConstraint=eastwest;" parent="244" vertex="1">
                    <mxGeometry y="40" width="250" height="54" as="geometry"/>
                </mxCell>
                <mxCell id="256" style="edgeStyle=orthogonalEdgeStyle;rounded=0;orthogonalLoop=1;jettySize=auto;html=1;exitX=0.5;exitY=0;exitDx=0;exitDy=0;endArrow=blockThin;endFill=0;entryX=0.336;entryY=1;entryDx=0;entryDy=0;entryPerimeter=0;" parent="WIyWlLk6GJQsqaUBKTNV-1" source="248" target="245" edge="1">
                    <mxGeometry relative="1" as="geometry">
                        <mxPoint x="334" y="2513" as="targetPoint"/>
                        <Array as="points">
                            <mxPoint x="309" y="2513"/>
                            <mxPoint x="370" y="2513"/>
                        </Array>
                    </mxGeometry>
                </mxCell>
                <mxCell id="248" value="StandardIO" style="swimlane;fontStyle=1;align=center;verticalAlign=top;childLayout=stackLayout;horizontal=1;startSize=26;horizontalStack=0;resizeParent=1;resizeParentMax=0;resizeLast=0;collapsible=1;marginBottom=0;" parent="WIyWlLk6GJQsqaUBKTNV-1" vertex="1">
                    <mxGeometry x="194" y="2533" width="230" height="110" as="geometry">
                        <mxRectangle x="190" y="420" width="70" height="26" as="alternateBounds"/>
                    </mxGeometry>
                </mxCell>
                <mxCell id="249" value="+ KIND: char*" style="text;strokeColor=none;fillColor=none;align=left;verticalAlign=top;spacingLeft=4;spacingRight=4;overflow=hidden;rotatable=0;points=[[0,0.5],[1,0.5]];portConstraint=eastwest;" parent="248" vertex="1">
                    <mxGeometry y="26" width="230" height="24" as="geometry"/>
                </mxCell>
                <mxCell id="250" value="" style="line;strokeWidth=1;fillColor=none;align=left;verticalAlign=middle;spacingTop=-1;spacingLeft=3;spacingRight=3;rotatable=0;labelPosition=right;points=[];portConstraint=eastwest;" parent="248" vertex="1">
                    <mxGeometry y="50" width="230" height="8" as="geometry"/>
                </mxCell>
                <mxCell id="251" value="+ read(): string&#10;+ write(string): void&#10;+ getIOKind(): string" style="text;strokeColor=none;fillColor=none;align=left;verticalAlign=top;spacingLeft=4;spacingRight=4;overflow=hidden;rotatable=0;points=[[0,0.5],[1,0.5]];portConstraint=eastwest;" parent="248" vertex="1">
                    <mxGeometry y="58" width="230" height="52" as="geometry"/>
                </mxCell>
                <mxCell id="257" style="edgeStyle=orthogonalEdgeStyle;rounded=0;orthogonalLoop=1;jettySize=auto;html=1;exitX=0.5;exitY=0;exitDx=0;exitDy=0;endArrow=blockThin;endFill=0;entryX=0.69;entryY=1.017;entryDx=0;entryDy=0;entryPerimeter=0;" parent="WIyWlLk6GJQsqaUBKTNV-1" source="252" target="245" edge="1">
                    <mxGeometry relative="1" as="geometry">
                        <mxPoint x="450" y="2510" as="targetPoint"/>
                        <Array as="points">
                            <mxPoint x="554" y="2513"/>
                            <mxPoint x="459" y="2513"/>
                            <mxPoint x="459" y="2488"/>
                        </Array>
                    </mxGeometry>
                </mxCell>
                <mxCell id="252" value="SocketIO" style="swimlane;fontStyle=1;align=center;verticalAlign=top;childLayout=stackLayout;horizontal=1;startSize=26;horizontalStack=0;resizeParent=1;resizeParentMax=0;resizeLast=0;collapsible=1;marginBottom=0;" parent="WIyWlLk6GJQsqaUBKTNV-1" vertex="1">
                    <mxGeometry x="474" y="2533" width="160" height="150" as="geometry">
                        <mxRectangle x="190" y="420" width="70" height="26" as="alternateBounds"/>
                    </mxGeometry>
                </mxCell>
                <mxCell id="253" value="+ KIND: char*&#10;- socket: Tcp*" style="text;strokeColor=none;fillColor=none;align=left;verticalAlign=top;spacingLeft=4;spacingRight=4;overflow=hidden;rotatable=0;points=[[0,0.5],[1,0.5]];portConstraint=eastwest;" parent="252" vertex="1">
                    <mxGeometry y="26" width="160" height="34" as="geometry"/>
                </mxCell>
                <mxCell id="254" value="" style="line;strokeWidth=1;fillColor=none;align=left;verticalAlign=middle;spacingTop=-1;spacingLeft=3;spacingRight=3;rotatable=0;labelPosition=right;points=[];portConstraint=eastwest;" parent="252" vertex="1">
                    <mxGeometry y="60" width="160" height="8" as="geometry"/>
                </mxCell>
                <mxCell id="255" value="+ read(): string&#10;+ write(string): void&#10;+ getIOKind(): string&#10;+ getSocket(): Tcp*&#10;+ setSocket(Tcp*): void" style="text;strokeColor=none;fillColor=none;align=left;verticalAlign=top;spacingLeft=4;spacingRight=4;overflow=hidden;rotatable=0;points=[[0,0.5],[1,0.5]];portConstraint=eastwest;" parent="252" vertex="1">
                    <mxGeometry y="68" width="160" height="82" as="geometry"/>
                </mxCell>
                <mxCell id="258" value="" style="shape=folder;fontStyle=1;spacingTop=10;tabWidth=92;tabHeight=20;tabPosition=left;html=1;rounded=0;shadow=0;comic=0;labelBackgroundColor=none;strokeWidth=1;fillColor=none;fontFamily=Verdana;fontSize=10;align=center;" parent="WIyWlLk6GJQsqaUBKTNV-1" vertex="1">
                    <mxGeometry x="475.75" y="4490" width="200" height="130" as="geometry"/>
                </mxCell>
                <mxCell id="259" value="&lt;font style=&quot;font-size: 12px&quot;&gt;&lt;b&gt;client&lt;/b&gt;&lt;/font&gt;" style="text;html=1;align=left;verticalAlign=top;spacingTop=-4;fontSize=10;fontFamily=Verdana" parent="WIyWlLk6GJQsqaUBKTNV-1" vertex="1">
                    <mxGeometry x="476.75" y="4490" width="130" height="20" as="geometry"/>
                </mxCell>
                <mxCell id="260" value="Client" style="whiteSpace=wrap;html=1;" parent="WIyWlLk6GJQsqaUBKTNV-1" vertex="1">
                    <mxGeometry x="513" y="4530" width="120" height="60" as="geometry"/>
                </mxCell>
                <mxCell id="263" value="Client" style="swimlane;fontStyle=1;align=center;verticalAlign=top;childLayout=stackLayout;horizontal=1;startSize=26;horizontalStack=0;resizeParent=1;resizeParentMax=0;resizeLast=0;collapsible=1;marginBottom=0;" parent="WIyWlLk6GJQsqaUBKTNV-1" vertex="1">
                    <mxGeometry x="299" y="2750" width="230" height="58" as="geometry">
                        <mxRectangle x="190" y="420" width="70" height="26" as="alternateBounds"/>
                    </mxGeometry>
                </mxCell>
                <mxCell id="266" value="+ main(): int" style="text;strokeColor=none;fillColor=none;align=left;verticalAlign=top;spacingLeft=4;spacingRight=4;overflow=hidden;rotatable=0;points=[[0,0.5],[1,0.5]];portConstraint=eastwest;" parent="263" vertex="1">
                    <mxGeometry y="26" width="230" height="32" as="geometry"/>
                </mxCell>
                <mxCell id="267" value="Server" style="swimlane;fontStyle=1;align=center;verticalAlign=top;childLayout=stackLayout;horizontal=1;startSize=26;horizontalStack=0;resizeParent=1;resizeParentMax=0;resizeLast=0;collapsible=1;marginBottom=0;" parent="WIyWlLk6GJQsqaUBKTNV-1" vertex="1">
                    <mxGeometry x="269" y="2870" width="290" height="70" as="geometry">
                        <mxRectangle x="190" y="420" width="70" height="26" as="alternateBounds"/>
                    </mxGeometry>
                </mxCell>
                <mxCell id="268" value="+ main(): int&#10;+ handleClient(socket: int, sockets:Â vector&lt;int&gt;*): void" style="text;strokeColor=none;fillColor=none;align=left;verticalAlign=top;spacingLeft=4;spacingRight=4;overflow=hidden;rotatable=0;points=[[0,0.5],[1,0.5]];portConstraint=eastwest;" parent="267" vertex="1">
                    <mxGeometry y="26" width="290" height="44" as="geometry"/>
                </mxCell>
                <mxCell id="269" value="&lt;font style=&quot;font-size: 14px&quot;&gt;&lt;b&gt;Packages&lt;/b&gt;&lt;/font&gt;" style="text;html=1;align=center;verticalAlign=middle;resizable=0;points=[];autosize=1;strokeColor=none;" parent="WIyWlLk6GJQsqaUBKTNV-1" vertex="1">
                    <mxGeometry x="370" y="3540" width="80" height="20" as="geometry"/>
                </mxCell>
                <mxCell id="276" value="" style="shape=folder;fontStyle=1;spacingTop=10;tabWidth=92;tabHeight=20;tabPosition=left;html=1;rounded=0;shadow=0;comic=0;labelBackgroundColor=none;strokeWidth=1;fillColor=none;fontFamily=Verdana;fontSize=10;align=center;" parent="WIyWlLk6GJQsqaUBKTNV-1" vertex="1">
                    <mxGeometry x="474.75" y="4231" width="321.5" height="210" as="geometry"/>
                </mxCell>
                <mxCell id="277" value="&lt;font style=&quot;font-size: 12px&quot;&gt;&lt;b&gt;protocol&lt;/b&gt;&lt;/font&gt;" style="text;html=1;align=left;verticalAlign=top;spacingTop=-4;fontSize=10;fontFamily=Verdana" parent="WIyWlLk6GJQsqaUBKTNV-1" vertex="1">
                    <mxGeometry x="475.75" y="4231" width="130" height="20" as="geometry"/>
                </mxCell>
                <mxCell id="278" value="Socket" style="whiteSpace=wrap;html=1;" parent="WIyWlLk6GJQsqaUBKTNV-1" vertex="1">
                    <mxGeometry x="496.25" y="4271" width="120" height="60" as="geometry"/>
                </mxCell>
                <mxCell id="279" value="Tcp" style="whiteSpace=wrap;html=1;" parent="WIyWlLk6GJQsqaUBKTNV-1" vertex="1">
                    <mxGeometry x="651.75" y="4271" width="120" height="60" as="geometry"/>
                </mxCell>
                <mxCell id="280" value="TcpServer" style="whiteSpace=wrap;html=1;" parent="WIyWlLk6GJQsqaUBKTNV-1" vertex="1">
                    <mxGeometry x="575.5" y="4361" width="120" height="60" as="geometry"/>
                </mxCell>
                <mxCell id="281" value="CheDistance" style="swimlane;fontStyle=1;align=center;verticalAlign=top;childLayout=stackLayout;horizontal=1;startSize=26;horizontalStack=0;resizeParent=1;resizeParentMax=0;resizeLast=0;collapsible=1;marginBottom=0;" parent="WIyWlLk6GJQsqaUBKTNV-1" vertex="1">
                    <mxGeometry x="39.5" y="540" width="360" height="60" as="geometry"/>
                </mxCell>
                <mxCell id="282" value="+ getDist(const Classified &amp;, const Classified &amp;): double" style="text;strokeColor=none;fillColor=none;align=left;verticalAlign=top;spacingLeft=4;spacingRight=4;overflow=hidden;rotatable=0;points=[[0,0.5],[1,0.5]];portConstraint=eastwest;" parent="281" vertex="1">
                    <mxGeometry y="26" width="360" height="34" as="geometry"/>
                </mxCell>
                <mxCell id="283" value="ManDistance" style="swimlane;fontStyle=1;align=center;verticalAlign=top;childLayout=stackLayout;horizontal=1;startSize=26;horizontalStack=0;resizeParent=1;resizeParentMax=0;resizeLast=0;collapsible=1;marginBottom=0;" parent="WIyWlLk6GJQsqaUBKTNV-1" vertex="1">
                    <mxGeometry x="428.5" y="540" width="360" height="60" as="geometry"/>
                </mxCell>
                <mxCell id="284" value="+ getDist(const Classified &amp;, const Classified &amp;): double" style="text;strokeColor=none;fillColor=none;align=left;verticalAlign=top;spacingLeft=4;spacingRight=4;overflow=hidden;rotatable=0;points=[[0,0.5],[1,0.5]];portConstraint=eastwest;" parent="283" vertex="1">
                    <mxGeometry y="26" width="360" height="34" as="geometry"/>
                </mxCell>
                <mxCell id="285" value="EucDistance" style="swimlane;fontStyle=1;align=center;verticalAlign=top;childLayout=stackLayout;horizontal=1;startSize=26;horizontalStack=0;resizeParent=1;resizeParentMax=0;resizeLast=0;collapsible=1;marginBottom=0;" parent="WIyWlLk6GJQsqaUBKTNV-1" vertex="1">
                    <mxGeometry x="234" y="630" width="360" height="60" as="geometry"/>
                </mxCell>
                <mxCell id="286" value="+ getDist(const Classified &amp;, const Classified &amp;): double" style="text;strokeColor=none;fillColor=none;align=left;verticalAlign=top;spacingLeft=4;spacingRight=4;overflow=hidden;rotatable=0;points=[[0,0.5],[1,0.5]];portConstraint=eastwest;" parent="285" vertex="1">
                    <mxGeometry y="26" width="360" height="34" as="geometry"/>
                </mxCell>
                <mxCell id="287" value="" style="shape=folder;fontStyle=1;spacingTop=10;tabWidth=92;tabHeight=20;tabPosition=left;html=1;rounded=0;shadow=0;comic=0;labelBackgroundColor=none;strokeWidth=1;fillColor=none;fontFamily=Verdana;fontSize=10;align=center;" parent="WIyWlLk6GJQsqaUBKTNV-1" vertex="1">
                    <mxGeometry x="32.25" y="3830" width="614" height="341" as="geometry"/>
                </mxCell>
                <mxCell id="288" value="&lt;font style=&quot;font-size: 12px&quot;&gt;&lt;b&gt;classifier&lt;/b&gt;&lt;/font&gt;" style="text;html=1;align=left;verticalAlign=top;spacingTop=-4;fontSize=10;fontFamily=Verdana" parent="WIyWlLk6GJQsqaUBKTNV-1" vertex="1">
                    <mxGeometry x="33.25" y="3830" width="130" height="20" as="geometry"/>
                </mxCell>
                <mxCell id="289" value="Algorithm" style="whiteSpace=wrap;html=1;" parent="WIyWlLk6GJQsqaUBKTNV-1" vertex="1">
                    <mxGeometry x="53.75" y="3870" width="120" height="60" as="geometry"/>
                </mxCell>
                <mxCell id="290" value="Classified" style="whiteSpace=wrap;html=1;" parent="WIyWlLk6GJQsqaUBKTNV-1" vertex="1">
                    <mxGeometry x="209.25" y="3870" width="120" height="60" as="geometry"/>
                </mxCell>
                <mxCell id="291" value="Classifier" style="whiteSpace=wrap;html=1;" parent="WIyWlLk6GJQsqaUBKTNV-1" vertex="1">
                    <mxGeometry x="368.25" y="3870" width="120" height="60" as="geometry"/>
                </mxCell>
                <mxCell id="292" value="KNNClassifier" style="whiteSpace=wrap;html=1;" parent="WIyWlLk6GJQsqaUBKTNV-1" vertex="1">
                    <mxGeometry x="53.75" y="3960" width="120" height="60" as="geometry"/>
                </mxCell>
                <mxCell id="293" value="" style="shape=folder;fontStyle=1;spacingTop=10;tabWidth=92;tabHeight=20;tabPosition=left;html=1;rounded=0;shadow=0;comic=0;labelBackgroundColor=none;strokeWidth=1;fillColor=none;fontFamily=Verdana;fontSize=10;align=center;" parent="WIyWlLk6GJQsqaUBKTNV-1" vertex="1">
                    <mxGeometry x="211" y="3951" width="321.5" height="210" as="geometry"/>
                </mxCell>
                <mxCell id="294" value="&lt;font style=&quot;font-size: 12px&quot;&gt;&lt;b&gt;distance&lt;/b&gt;&lt;/font&gt;" style="text;html=1;align=left;verticalAlign=top;spacingTop=-4;fontSize=10;fontFamily=Verdana" parent="WIyWlLk6GJQsqaUBKTNV-1" vertex="1">
                    <mxGeometry x="212" y="3951" width="130" height="20" as="geometry"/>
                </mxCell>
                <mxCell id="295" value="CheDistance" style="whiteSpace=wrap;html=1;" parent="WIyWlLk6GJQsqaUBKTNV-1" vertex="1">
                    <mxGeometry x="232.5" y="3991" width="120" height="60" as="geometry"/>
                </mxCell>
                <mxCell id="296" value="EucDistance" style="whiteSpace=wrap;html=1;" parent="WIyWlLk6GJQsqaUBKTNV-1" vertex="1">
                    <mxGeometry x="388" y="3991" width="120" height="60" as="geometry"/>
                </mxCell>
                <mxCell id="297" value="ManDistance" style="whiteSpace=wrap;html=1;" parent="WIyWlLk6GJQsqaUBKTNV-1" vertex="1">
                    <mxGeometry x="311.75" y="4081" width="120" height="60" as="geometry"/>
                </mxCell>
                <mxCell id="298" value="" style="shape=folder;fontStyle=1;spacingTop=10;tabWidth=92;tabHeight=20;tabPosition=left;html=1;rounded=0;shadow=0;comic=0;labelBackgroundColor=none;strokeWidth=1;fillColor=none;fontFamily=Verdana;fontSize=10;align=center;" parent="WIyWlLk6GJQsqaUBKTNV-1" vertex="1">
                    <mxGeometry x="32.25" y="4231" width="405.75" height="330" as="geometry"/>
                </mxCell>
                <mxCell id="299" value="&lt;font style=&quot;font-size: 12px&quot;&gt;&lt;b&gt;server&lt;/b&gt;&lt;/font&gt;" style="text;html=1;align=left;verticalAlign=top;spacingTop=-4;fontSize=10;fontFamily=Verdana" parent="WIyWlLk6GJQsqaUBKTNV-1" vertex="1">
                    <mxGeometry x="33.25" y="4231" width="130" height="20" as="geometry"/>
                </mxCell>
                <mxCell id="300" value="CLI" style="whiteSpace=wrap;html=1;" parent="WIyWlLk6GJQsqaUBKTNV-1" vertex="1">
                    <mxGeometry x="53.75" y="4271" width="120" height="60" as="geometry"/>
                </mxCell>
                <mxCell id="301" value="DataManager" style="whiteSpace=wrap;html=1;" parent="WIyWlLk6GJQsqaUBKTNV-1" vertex="1">
                    <mxGeometry x="51.75" y="4372" width="120" height="60" as="geometry"/>
                </mxCell>
                <mxCell id="302" value="Server" style="whiteSpace=wrap;html=1;" parent="WIyWlLk6GJQsqaUBKTNV-1" vertex="1">
                    <mxGeometry x="52.75" y="4471" width="120" height="60" as="geometry"/>
                </mxCell>
                <mxCell id="304" value="" style="shape=folder;fontStyle=1;spacingTop=10;tabWidth=92;tabHeight=20;tabPosition=left;html=1;rounded=0;shadow=0;comic=0;labelBackgroundColor=none;strokeWidth=1;fillColor=none;fontFamily=Verdana;fontSize=10;align=center;" parent="WIyWlLk6GJQsqaUBKTNV-1" vertex="1">
                    <mxGeometry x="205.5" y="4271" width="182.5" height="260" as="geometry"/>
                </mxCell>
                <mxCell id="305" value="&lt;font style=&quot;font-size: 12px&quot;&gt;&lt;b&gt;commands&lt;/b&gt;&lt;/font&gt;" style="text;html=1;align=left;verticalAlign=top;spacingTop=-4;fontSize=10;fontFamily=Verdana" parent="WIyWlLk6GJQsqaUBKTNV-1" vertex="1">
                    <mxGeometry x="206.5" y="4271" width="130" height="20" as="geometry"/>
                </mxCell>
                <mxCell id="306" value="Command" style="whiteSpace=wrap;html=1;" parent="WIyWlLk6GJQsqaUBKTNV-1" vertex="1">
                    <mxGeometry x="227" y="4311" width="120" height="60" as="geometry"/>
                </mxCell>
                <mxCell id="309" style="edgeStyle=orthogonalEdgeStyle;rounded=0;orthogonalLoop=1;jettySize=auto;html=1;exitX=0.5;exitY=0;exitDx=0;exitDy=0;entryX=0.5;entryY=1;entryDx=0;entryDy=0;fontSize=14;endArrow=blockThin;endFill=0;" parent="WIyWlLk6GJQsqaUBKTNV-1" source="307" target="306" edge="1">
                    <mxGeometry relative="1" as="geometry"/>
                </mxCell>
                <mxCell id="307" value="All 7 commands..." style="whiteSpace=wrap;html=1;" parent="WIyWlLk6GJQsqaUBKTNV-1" vertex="1">
                    <mxGeometry x="227" y="4421" width="120" height="60" as="geometry"/>
                </mxCell>
            </root>
        </mxGraphModel>
    </diagram>
</mxfile>